<?xml version="1.0" encoding="utf-8"?>
<!-- Generator: Adobe Illustrator 24.3.0, SVG Export Plug-In . SVG Version: 6.00 Build 0)  -->
<svg version="1.1" id="Layer_1" xmlns="http://www.w3.org/2000/svg" xmlns:xlink="http://www.w3.org/1999/xlink" x="0px" y="0px"
	 viewBox="0 0 1031 340" enable-background="new 0 0 1031 340" xml:space="preserve">
<g>
	<path fill="#5B8F40" d="M360.75,214.28c2.04-6.47,4.39-13.31,7.05-20.49c2.66-7.19,5.32-14.11,7.98-20.76
		c2.66-6.65,5.28-12.73,7.85-18.23c2.57-5.5,4.74-9.76,6.52-12.77c13.31-0.53,26.79-1.02,40.45-1.47
		c13.66-0.44,27.68-0.84,42.05-1.2c0.17-0.88-0.13-1.68-0.93-2.4c-0.8-0.71-1.38-1.06-1.73-1.06l-75.85-2.66l12.77-25.55
		c0.35-1.06,0.04-2.04-0.93-2.93c-0.98-0.89-2.26-1.47-3.86-1.73c-1.6-0.27-3.28-0.22-5.06,0.13c-1.78,0.36-3.37,1.15-4.79,2.4
		c-1.42,1.42-3.02,3.37-4.79,5.85c-1.78,2.49-3.51,5.15-5.19,7.98c-1.69,2.84-3.28,5.68-4.79,8.51c-1.51,2.84-2.79,5.32-3.86,7.45
		c-1.6,0.18-4.08,0.36-7.45,0.53c-3.37,0.18-7.19,0.4-11.45,0.66c-4.26,0.27-8.69,0.49-13.31,0.67c-4.62,0.18-9.01,0.4-13.17,0.66
		c-4.17,0.27-7.94,0.58-11.31,0.93c-3.37,0.36-5.77,0.71-7.19,1.06c-1.24,0.36-2.44,1.11-3.59,2.26c-1.15,1.16-1.86,2.31-2.13,3.46
		c-0.27,1.16,0.18,2.22,1.33,3.19c1.15,0.98,3.41,1.29,6.79,0.93c1.6,0,5.14-0.27,10.65-0.8c5.5-0.53,11.35-1.06,17.57-1.6
		c6.21-0.53,12.02-1.06,17.43-1.6c5.41-0.53,9-0.8,10.78-0.8c-2.31,4.62-5.15,10.51-8.52,17.7c-3.37,7.19-6.97,14.77-10.78,22.76
		c-3.82,7.98-7.63,15.93-11.44,23.82c-3.82,7.9-7.32,14.86-10.51,20.89c-3.19,6.03-5.86,10.74-7.98,14.1
		c-2.13,3.37-3.37,4.53-3.73,3.46c-0.53-1.6-0.27-4.75,0.8-9.45c1.07-4.7,2.75-10.15,5.06-16.37c2.3-6.21,5.14-12.73,8.52-19.56
		c3.37-6.83,7.09-13.35,11.18-19.56c-0.89-1.95-2.36-3.33-4.39-4.13c-2.04-0.8-4.26-0.97-6.65-0.53c-2.4,0.45-4.62,1.33-6.66,2.66
		c-2.04,1.33-3.42,3.15-4.12,5.45c-1.42,3.19-3.11,6.61-5.06,10.25c-1.96,3.64-4.08,7.19-6.39,10.65c-2.31,3.46-4.7,6.75-7.19,9.85
		c-2.49,3.11-4.79,5.81-6.92,8.12c-1.6,1.6-3.24,2.97-4.92,4.12c-1.69,1.16-3.19,1.73-4.53,1.73c-1.33,0-2.26-0.75-2.79-2.26
		c-0.53-1.51-0.36-4.13,0.53-7.85c0.88-3.55,2.61-7.32,5.19-11.31c2.57-3.99,5.59-7.67,9.05-11.04c3.46-3.37,7.14-6.21,11.04-8.52
		c3.9-2.3,7.72-3.46,11.44-3.46c1.42-1.6,1.46-2.88,0.13-3.86c-1.33-0.97-3.06-1.55-5.19-1.73c-7.28-0.35-14.2,1.64-20.76,5.99
		c-6.56,4.35-11.8,9.72-15.7,16.1c-1.48,2.41-2.66,4.9-3.56,7.46c-13.63,9.33-27.26,18.85-40.88,28.6
		c-14.02,10.02-29.1,19.83-45.24,29.41c-0.71,0.36-2.18,1.02-4.39,2c-2.22,0.98-4.57,1.91-7.05,2.79c-4.44,1.42-7.14,1.6-8.12,0.53
		c-0.98-1.06-1.06-2.57-0.27-4.53c0.8-1.95,2.08-4.12,3.86-6.52c1.77-2.4,3.37-4.39,4.79-5.99c3.9-4.43,8.83-9.32,14.77-14.64
		c5.94-5.32,12.24-10.65,18.89-15.97c6.65-5.32,13.48-10.55,20.49-15.7c7.01-5.14,13.53-9.93,19.56-14.37l9.05-6.92
		c1.77-1.42,2.84-3.02,3.19-4.79c0.35-1.77,0.13-3.37-0.66-4.79c-0.8-1.42-2-2.61-3.59-3.59c-1.6-0.97-3.55-1.37-5.85-1.2
		c-5.15,2.49-11.36,5.06-18.63,7.72c-7.28,2.66-14.51,4.88-21.69,6.66c-7.18,1.77-13.8,2.79-19.82,3.06
		c-6.03,0.27-10.43-0.75-13.17-3.06c-2.75-2.3-3.28-6.16-1.6-11.58c1.68-5.41,6.61-12.99,14.77-22.76
		c5.85-6.39,12.24-12.55,19.16-18.5c6.92-5.94,14.15-11.44,21.69-16.5c7.54-5.06,15.39-9.4,23.55-13.04
		c8.16-3.64,16.41-6.26,24.75-7.85c3.55-0.7,6.7-0.66,9.45,0.13c2.75,0.8,4.74,3.06,5.99,6.79c3.37-0.89,5.77-2.4,7.19-4.53
		c1.42-2.13,2.04-4.39,1.86-6.79c-0.18-2.39-1.07-4.61-2.66-6.65c-1.6-2.04-3.55-3.33-5.85-3.86c-3.9-0.89-8.65-0.71-14.24,0.53
		c-5.59,1.24-11.14,2.93-16.63,5.06c-5.5,2.13-10.51,4.26-15.04,6.39c-4.53,2.13-7.58,3.64-9.18,4.52
		c-23.07,13.13-43.82,29.72-62.28,49.77c-5.32,6.56-9.45,12.91-12.37,19.03c-2.93,6.12-3.99,11.53-3.19,16.23
		c0.8,4.7,3.77,8.34,8.91,10.91c5.14,2.57,13.21,3.5,24.22,2.79c2.48-0.17,4.92-0.35,7.32-0.53c2.4-0.17,4.92-0.44,7.58-0.8
		c-1.77,1.96-4.44,4.44-7.98,7.45c-3.55,3.02-7.45,6.38-11.71,10.11c-4.26,3.73-8.65,7.81-13.17,12.24
		c-4.52,4.44-8.74,9.05-12.64,13.84c-3.9,4.79-7.18,9.72-9.85,14.77c-2.66,5.06-4.26,10.16-4.79,15.3
		c-0.35,4.08,0.62,7.23,2.93,9.45c2.3,2.22,5.5,3.24,9.58,3.06c4.26,0,8.42-1.07,12.51-3.19c4.08-2.13,8.07-4.17,11.98-6.12
		c14.9-7.98,29.45-17.43,43.65-28.34c12.1-9.3,25.22-19.18,39.25-29.58c-0.04,0.24-0.1,0.47-0.14,0.7
		c-0.7,5.15,0.09,10.03,2.4,14.64c1.07,2.13,2.62,3.77,4.66,4.92c2.04,1.16,4.92,1.02,8.65-0.4c3.9-2.13,7.8-5.67,11.71-10.64
		c3.9-4.96,7.81-10.02,11.71-15.17c-0.89,2.49-2,5.77-3.33,9.85c-1.33,4.08-2.35,8.21-3.06,12.37c-0.71,4.17-0.89,8.08-0.53,11.71
		c0.35,3.64,1.6,6.25,3.73,7.85c2.48,1.95,4.75,2.75,6.79,2.4c2.04-0.35,4.57-2.04,7.58-5.06c1.24-1.24,2.97-3.9,5.19-7.98
		c2.22-4.08,4.7-8.92,7.45-14.51c2.75-5.59,5.67-11.75,8.78-18.5c3.1-6.74,6.16-13.39,9.18-19.96c-1.42,4.26-2.62,8.51-3.59,12.77
		c-0.98,4.26-1.91,8.43-2.79,12.51c-0.36,1.95-0.84,4.84-1.46,8.65c-0.62,3.82-0.98,7.68-1.06,11.58c-0.09,3.9,0.35,7.45,1.33,10.65
		c0.97,3.19,2.79,5.24,5.46,6.12c2.66,0.53,4.74,0.4,6.25-0.4c1.51-0.8,3.5-2.79,5.99-5.99c5.14-7.09,9.62-13.79,13.44-20.09
		c3.81-6.3,8.02-12.82,12.64-19.56c1.42-2.3,1.51-3.59,0.27-3.86c-1.24-0.27-2.57,0.49-3.99,2.26c-2.13,3.02-4.79,7.01-7.98,11.97
		c-3.19,4.97-6.3,9.67-9.31,14.11c-3.02,4.44-5.77,8.12-8.25,11.04c-2.49,2.93-4.26,3.95-5.32,3.06c-0.18-2.66,0.31-6.65,1.46-11.98
		C357.11,226.66,358.71,220.76,360.75,214.28z"/>
	<path fill="#5B8F40" d="M813.97,188.29c3.12-7.5,11.19-8.46,14.06-8.63c13-1.08,26.36-6.12,35.38-15.85
		c2.35-2.59,4.4-5.48,6.01-8.62c8.92-18.01,7.11-38.88-3-53.28c-5.01,16.14-40.03,25.03-53.27,40.63
		c-12.45,14.74-7.65,31-3.82,35.61c4.08-7.91,11.49-13.53,19.38-17.63c40.37-21.14,37.44-47.68,37.76-54.23
		c1.61,12.44-1.42,24.05-12.19,37.46c-2.33,2.89-10.57,10.12-18.86,15.43c-9.06,5.86-18.08,10.69-23.55,20.48
		c-1.74,3-2.86,6.18-4.06,9.44c-1.08,2.89-2.08,5.86-3.15,8.75c-0.53-2.16-0.97-4.25-1.37-6.43c-1.34-7.11-2.02-14.34-2.46-21.58
		c-0.68-9.98,0.17-20.06,3.02-29.64c5.07-17.21,11.72-18.7,11.2-25.27c-0.25-3.04-3.44-6.78-7.26-1.8
		c-2.98,3.83-9.38,31.15-11.48,44.13c-0.36-0.68-0.64-1.35-0.92-2.02c-1.13-2.61-2.34-5.22-3.96-7.66
		c-5.18-7.8-13-11.35-21.04-15.71c-7.23-3.87-14.62-9.44-16.71-11.75c-9.83-10.56-13.11-20.11-12.54-30.64
		c0.69,5.47-0.14,27.89,34.99,43.07c6.83,2.98,13.49,7.24,17.34,13.63c2.89-4.08,5.99-18.01-5.36-29.56
		c-12.11-12.26-41.98-17.57-47.13-30.82c-7.61,12.72-7.89,30.33,0.73,44.82c1.51,2.57,3.4,4.89,5.57,6.85
		c8.18,7.64,19.66,11.04,30.61,11.15c2.45,0.01,9.28,0.3,12.3,6.34c1.22,2.44,2.42,6.25,3.28,10.25c0.84,3.94,1.12,7.91,1.12,11.89
		c-0.01,6.42,0.52,12.84,1.58,19.22c0.42,2.62,0.99,5.02,1.58,7.32c-0.23,0.21-0.44,0.39-0.68,0.66c-2.66,3.19-5.72,7.05-9.18,11.58
		c-3.46,4.53-6.74,8.78-9.85,12.77c-3.11,3.99-5.77,7.23-7.98,9.71c-2.22,2.49-3.42,3.19-3.59,2.13c-0.71-1.42-0.49-3.81,0.66-7.19
		c1.15-3.37,2.57-7.05,4.26-11.04c1.68-3.99,3.46-7.98,5.32-11.98c1.86-3.99,3.06-7.32,3.59-9.98c0.35-1.95,0.44-3.9,0.27-5.85
		c-0.18-1.95-0.76-3.68-1.73-5.19c-0.98-1.51-2.31-2.7-3.99-3.59c-1.69-0.88-3.86-1.15-6.52-0.8c-3.55,0.71-7.41,2.84-11.57,6.39
		c-4.17,3.55-8.38,7.72-12.64,12.51c-4.26,4.79-8.43,9.76-12.51,14.9c-4.08,5.15-7.9,9.58-11.44,13.31
		c1.06-3.54,2.57-7.45,4.52-11.71c1.95-4.26,4.08-8.52,6.39-12.78c2.3-4.26,4.61-8.47,6.92-12.64c2.3-4.17,4.35-8.02,6.12-11.58
		c0.89-1.77,1.64-3.19,2.26-4.26c0.62-1.06,0.04-1.86-1.73-2.4c-1.95-0.88-4.52-1.37-7.72-1.46c-3.19-0.09-5.5,0.66-6.92,2.26
		c-3.19,3.73-6.25,8.47-9.18,14.24c-2.93,5.77-5.59,11.58-7.98,17.43c-0.07,0.18-0.13,0.35-0.21,0.53
		c-1.59,2.19-3.33,4.71-5.25,7.59c-3.72,5.59-7.41,10.91-11.04,15.97c-3.64,5.06-6.88,9.18-9.71,12.38
		c-2.84,3.19-4.62,3.9-5.32,2.13c-0.53-1.6-0.27-4.75,0.8-9.45c1.07-4.7,2.75-10.15,5.06-16.37c2.3-6.21,5.14-12.73,8.52-19.56
		c3.37-6.83,7.1-13.35,11.18-19.56c-0.89-1.95-2.36-3.33-4.39-4.13c-2.04-0.8-4.26-0.97-6.65-0.53c-2.4,0.45-4.62,1.33-6.66,2.66
		c-2.04,1.33-3.42,3.15-4.12,5.45c-1.42,3.19-3.11,6.61-5.06,10.25c-1.96,3.64-4.08,7.19-6.39,10.65c-2.31,3.46-4.7,6.75-7.19,9.85
		c-2.49,3.11-4.79,5.81-6.92,8.12c-1.6,1.6-3.24,2.97-4.92,4.12c-1.69,1.16-3.19,1.73-4.53,1.73c-1.33,0-2.26-0.75-2.79-2.26
		c-0.53-1.51-0.36-4.13,0.53-7.85c0.88-3.55,2.61-7.32,5.19-11.31c2.57-3.99,5.59-7.67,9.05-11.04c3.46-3.37,7.14-6.21,11.04-8.52
		c3.9-2.3,7.72-3.46,11.44-3.46c1.42-1.6,1.46-2.88,0.13-3.86c-1.33-0.97-3.06-1.55-5.19-1.73c-7.28-0.35-14.2,1.64-20.76,5.99
		c-6.56,4.35-11.8,9.72-15.7,16.1c-2.06,3.35-3.55,6.85-4.49,10.49c-0.36,0.5-0.72,0.99-1.1,1.48c-2.49,3.19-5.1,6.17-7.85,8.92
		c-2.75,2.75-5.45,5.15-8.12,7.19c-2.66,2.04-4.88,3.5-6.65,4.39c-3.55,1.6-6.17,2.09-7.85,1.46c-1.69-0.62-2.79-1.86-3.33-3.73
		c-0.53-1.86-0.49-4.08,0.13-6.65c0.62-2.57,1.55-4.92,2.79-7.05c2.84-0.53,6.21-2.44,10.11-5.72c3.9-3.28,7.36-7.05,10.38-11.31
		c3.01-4.26,5.01-8.52,5.99-12.77c0.97-4.26,0.04-7.72-2.79-10.38c-2.66-2.48-5.72-3.37-9.18-2.66c-3.46,0.71-6.7,2.13-9.72,4.26
		c-3.72,2.66-7.5,6.43-11.31,11.31c-3.82,4.88-6.92,10.11-9.32,15.7c-0.63,1.46-1.17,2.93-1.65,4.4c-0.16,0.28-0.31,0.51-0.47,0.79
		c-1.86,3.19-3.82,6.39-5.85,9.58c-2.04,3.19-4.04,6.21-5.99,9.05c-1.96,2.84-3.73,5.24-5.32,7.19c-3.37,3.9-5.55,5.63-6.52,5.19
		c-0.98-0.44-0.49-3.59,1.46-9.45c3.9-11.89,8.56-24.49,13.97-37.79c5.41-13.31,11.04-26.25,16.9-38.86
		c5.85-12.6,11.66-24.44,17.43-35.53c5.76-11.09,11.04-20.53,15.83-28.34c0.17-0.7-0.27-1.46-1.33-2.26
		c-1.06-0.8-2.44-1.28-4.12-1.46c-1.69-0.17-3.55,0.05-5.59,0.66c-2.04,0.62-3.95,2-5.72,4.13c-4.08,4.79-8.34,10.96-12.77,18.5
		c-4.44,7.54-8.87,15.88-13.31,25.02c-4.44,9.14-8.69,18.72-12.78,28.74c-4.08,10.03-7.81,19.92-11.18,29.67
		c-0.76,2.01-1.58,4.25-2.47,6.71c-7.96,6.02-15.92,12.34-23.88,18.97c-7.98,6.65-16.1,13.17-24.35,19.56
		c-8.25,6.39-16.72,12.33-25.41,17.83c-8.7,5.5-17.83,10.11-27.41,13.84c-3.91,1.6-6.92,1.86-9.05,0.8
		c-2.13-1.06-3.64-2.83-4.53-5.32c-0.89-2.48-1.2-5.5-0.93-9.05c0.27-3.54,0.75-7.09,1.47-10.64c0.71-3.54,1.6-6.92,2.66-10.11
		c1.06-3.19,1.95-5.59,2.66-7.19c5.32-11.89,11.49-23.9,18.5-36.06c7.01-12.15,14.9-23.86,23.69-35.13
		c8.78-11.27,18.45-21.73,29.01-31.4c10.55-9.67,21.95-17.87,34.2-24.62c5.85-3.01,9.93-4.26,12.24-3.72
		c2.3,0.53,3.33,2.17,3.06,4.92c-0.27,2.75-1.51,6.35-3.73,10.78c-2.22,4.44-4.84,9.01-7.85,13.7c-3.02,4.71-6.21,9.32-9.58,13.84
		c-3.37,4.53-6.39,8.3-9.05,11.31c-1.78,1.95-2.53,3.82-2.26,5.59c0.27,1.77,1.06,3.24,2.39,4.39c1.33,1.15,2.93,1.86,4.79,2.13
		c1.86,0.27,3.59-0.13,5.19-1.2c6.74-5.5,12.82-11.57,18.23-18.23c5.41-6.65,10.15-13.97,14.24-21.95c2.48-5.5,3.9-10.91,4.26-16.23
		c0.35-5.32-1.25-10.55-4.79-15.7c-3.37-4.43-7.37-6.96-11.98-7.58c-4.62-0.62-9.41-0.13-14.37,1.46c-4.97,1.6-9.85,3.9-14.64,6.92
		c-4.79,3.02-8.87,5.77-12.24,8.25c-10.47,7.81-21.07,17.43-31.8,28.88c-10.74,11.44-20.72,23.82-29.94,37.12
		c-9.23,13.31-17.17,27.1-23.82,41.38c-6.65,14.29-10.96,28.08-12.91,41.38c-1.77,12.78,0.22,21.87,5.99,27.28
		c5.76,5.41,14.06,6.08,24.88,2c7.27-2.83,14.32-6.39,21.16-10.65c6.83-4.26,13.53-8.92,20.09-13.97
		c6.56-5.06,13.08-10.29,19.56-15.7c6.48-5.41,13.08-10.78,19.83-16.1c3.73-3.02,6.7-5.59,8.92-7.72c1.13-1.09,2.45-2.32,3.93-3.69
		c-0.47,1.44-0.94,2.88-1.4,4.35c-1.24,3.99-2.4,7.9-3.46,11.71c-1.06,3.82-1.86,7.32-2.4,10.51c-0.35,2.49-0.22,4.84,0.4,7.05
		c0.62,2.22,2.26,3.77,4.92,4.66c1.95,0.53,4.08,0.31,6.39-0.67c2.3-0.97,4.43-2.44,6.39-4.39c1.77-1.6,3.86-4.08,6.25-7.45
		c2.4-3.37,4.88-7.05,7.45-11.04c1.65-2.56,3.25-5.17,4.86-7.76c-0.16,1.21-0.29,2.42-0.34,3.64c-0.27,5.68,1.38,10.74,4.92,15.17
		c2.48,3.19,5.81,4.97,9.98,5.32c4.17,0.36,8.38-0.44,12.64-2.4c2.83-1.24,5.9-3.1,9.18-5.59c3.28-2.48,6.47-5.32,9.58-8.52
		c1.6-1.65,3.13-3.38,4.6-5.17c0.29,2.97,1.07,5.86,2.45,8.64c1.07,2.13,2.62,3.77,4.66,4.92c2.04,1.16,4.92,1.02,8.65-0.4
		c3.9-2.13,7.8-5.67,11.71-10.64c3.9-4.96,7.8-10.02,11.71-15.17c-0.89,2.49-2,5.77-3.33,9.85c-1.33,4.08-2.35,8.21-3.06,12.37
		c-0.71,4.17-0.89,8.08-0.53,11.71c0.35,3.64,1.6,6.25,3.73,7.85c2.48,1.95,4.96,3.02,7.45,3.19c2.48,0.18,5.23-1.24,8.25-4.26
		c2.13-2.13,4.61-5.19,7.45-9.18c2.84-3.99,5.81-8.2,8.92-12.64c0,0,0-0.01,0.01-0.01c-0.89,3.27-1.48,5.96-1.74,7.99
		c-0.53,3.37-0.27,6.08,0.8,8.12c1.06,2.04,3.11,3.95,6.12,5.72c1.42,1.06,2.62,1.15,3.59,0.27c0.98-0.89,2-2.04,3.06-3.46
		c2.83-4.08,6.12-8.56,9.85-13.44c3.72-4.88,7.63-9.72,11.71-14.51c4.08-4.79,8.2-9.36,12.38-13.7c4.17-4.35,8.29-8.12,12.38-11.31
		c1.77-1.24,2.93-1.77,3.46-1.6c0.53,0.18,0.71,0.89,0.53,2.13c-0.18,1.24-0.62,2.75-1.33,4.53c-0.71,1.77-1.51,3.55-2.4,5.32
		c-0.89,1.96-2,4.44-3.33,7.45c-1.33,3.02-2.57,6.21-3.72,9.58c-1.16,3.37-2.22,6.61-3.19,9.72c-0.98,3.11-1.64,5.81-2,8.12
		c-0.36,2.49-0.09,4.79,0.8,6.92c0.88,2.13,2.57,3.72,5.06,4.79c2.3,0.89,4.39,0.98,6.25,0.27c1.86-0.71,3.59-1.95,5.19-3.73
		c1.77-1.6,4.17-4.34,7.19-8.25c3.01-3.9,6.12-8.07,9.32-12.51c3.19-4.43,6.16-8.69,8.91-12.77c1.81-2.69,3.31-4.92,4.54-6.76
		 M616.63,199.25c3.01-4.43,6.03-7.98,9.05-10.65c0,2.13-0.49,4.48-1.46,7.05c-0.98,2.57-2.26,4.97-3.86,7.19
		c-1.6,2.22-3.37,4.22-5.32,5.99c-1.96,1.78-3.82,3.02-5.59,3.72C611.21,208.12,613.61,203.68,616.63,199.25z"/>
</g>
</svg>
