<?xml version="1.0" encoding="utf-8"?>
<!-- Generator: Adobe Illustrator 16.0.0, SVG Export Plug-In . SVG Version: 6.00 Build 0)  -->
<!DOCTYPE svg PUBLIC "-//W3C//DTD SVG 1.1//EN" "http://www.w3.org/Graphics/SVG/1.1/DTD/svg11.dtd">
<svg version="1.1" id="Layer_1" xmlns="http://www.w3.org/2000/svg" xmlns:xlink="http://www.w3.org/1999/xlink" x="0px" y="0px"
	 width="152px" height="40.936px" viewBox="0 0 152 40.936" enable-background="new 0 0 152 40.936" xml:space="preserve">
<g>
	<g>
		<path fill="#5B8F40" d="M27.203,14.269c0.895,0,1.702,0.152,2.449,0.427c0.747,0.273,1.393,0.69,1.936,1.233
			c0.525,0.55,0.943,1.229,1.258,2.003c0.3,0.798,0.433,1.695,0.433,2.699c0,0.269-0.015,0.481-0.015,0.639
			c-0.026,0.177-0.081,0.298-0.126,0.39c-0.077,0.1-0.15,0.184-0.25,0.205c-0.099,0.053-0.233,0.08-0.371,0.08h-8.679
			c0.1,1.436,0.478,2.499,1.167,3.158c0.658,0.688,1.57,1.032,2.672,1.032c0.556,0,1.013-0.083,1.407-0.196
			c0.418-0.125,0.742-0.277,1.045-0.418c0.313-0.169,0.557-0.313,0.784-0.425c0.229-0.135,0.447-0.202,0.657-0.202
			c0.125,0,0.237,0.021,0.336,0.092c0.104,0.039,0.207,0.117,0.276,0.223l0.976,1.242c-0.369,0.43-0.789,0.796-1.254,1.087
			c-0.463,0.291-0.939,0.537-1.463,0.707c-0.509,0.199-1.023,0.308-1.549,0.395c-0.525,0.063-1.03,0.111-1.513,0.111
			c-0.987,0-1.885-0.181-2.727-0.506c-0.84-0.319-1.568-0.794-2.188-1.431c-0.618-0.637-1.114-1.404-1.466-2.339
			c-0.367-0.938-0.537-2.029-0.537-3.253c0-0.964,0.157-1.865,0.471-2.701c0.313-0.845,0.739-1.581,1.337-2.205
			c0.564-0.624,1.275-1.139,2.111-1.491C25.218,14.444,26.158,14.269,27.203,14.269z M27.286,16.697
			c-0.999,0-1.755,0.269-2.316,0.834c-0.567,0.567-0.905,1.342-1.075,2.357h6.345c0-0.429-0.046-0.847-0.17-1.233
			c-0.122-0.379-0.297-0.727-0.555-1.013c-0.226-0.285-0.536-0.522-0.928-0.69C28.227,16.775,27.781,16.697,27.286,16.697z"/>
		<path fill="#5B8F40" d="M46.556,17.396c-0.099,0.135-0.195,0.234-0.289,0.298c-0.092,0.094-0.242,0.111-0.416,0.111
			c-0.163,0-0.352-0.038-0.502-0.143c-0.173-0.104-0.375-0.228-0.591-0.369c-0.22-0.133-0.51-0.236-0.825-0.342
			c-0.316-0.104-0.697-0.169-1.161-0.169c-0.599,0-1.118,0.109-1.566,0.325c-0.432,0.216-0.821,0.522-1.112,0.918
			c-0.292,0.396-0.518,0.903-0.665,1.456c-0.137,0.585-0.209,1.231-0.209,1.953c0,0.741,0.081,1.4,0.227,1.995
			c0.175,0.579,0.4,1.06,0.71,1.463c0.297,0.41,0.646,0.707,1.078,0.91c0.432,0.205,0.911,0.307,1.447,0.307
			c0.542,0,0.983-0.066,1.323-0.195c0.336-0.14,0.609-0.289,0.844-0.443c0.223-0.16,0.429-0.304,0.585-0.444
			c0.161-0.134,0.37-0.195,0.579-0.195c0.265,0,0.469,0.104,0.615,0.315l0.951,1.225c-0.362,0.444-0.764,0.82-1.208,1.119
			c-0.445,0.291-0.882,0.537-1.364,0.705c-0.457,0.17-0.96,0.302-1.456,0.365c-0.495,0.094-0.987,0.109-1.499,0.109
			c-0.846,0-1.682-0.147-2.434-0.475c-0.776-0.325-1.443-0.795-2.011-1.422c-0.581-0.627-1.015-1.366-1.353-2.284
			c-0.34-0.886-0.493-1.903-0.493-3.055c0-1.034,0.129-1.986,0.429-2.881c0.313-0.87,0.73-1.633,1.315-2.281
			c0.565-0.648,1.296-1.146,2.132-1.515c0.837-0.36,1.825-0.536,2.926-0.536c1.045,0,1.984,0.156,2.76,0.501
			c0.793,0.347,1.51,0.817,2.139,1.448L46.556,17.396z"/>
		<path fill="#DDA727" d="M66.91,28.718V14.444H69c0.448,0,0.732,0.209,0.885,0.627l0.223,1.049c0.25-0.265,0.518-0.525,0.774-0.742
			c0.295-0.237,0.584-0.437,0.883-0.619c0.312-0.153,0.657-0.297,0.998-0.388c0.368-0.103,0.748-0.136,1.18-0.136
			c0.909,0,1.64,0.227,2.226,0.732c0.564,0.482,1.004,1.132,1.295,1.925c0.21-0.462,0.506-0.88,0.836-1.2
			c0.32-0.35,0.704-0.621,1.092-0.83c0.402-0.212,0.824-0.382,1.281-0.479c0.449-0.111,0.891-0.147,1.352-0.147
			c0.777,0,1.494,0.105,2.106,0.349c0.609,0.254,1.117,0.593,1.532,1.059c0.419,0.474,0.741,1.027,0.958,1.708
			c0.217,0.65,0.335,1.423,0.335,2.287v9.08h-3.438v-9.08c0-0.908-0.203-1.595-0.619-2.059c-0.392-0.45-0.957-0.687-1.739-0.687
			c-0.353,0-0.665,0.06-0.979,0.172c-0.313,0.128-0.56,0.306-0.796,0.526c-0.234,0.235-0.402,0.512-0.54,0.857
			c-0.127,0.35-0.187,0.744-0.187,1.189v9.08h-3.446v-9.08c0-0.96-0.189-1.641-0.568-2.082c-0.4-0.434-0.955-0.663-1.707-0.663
			c-0.488,0-0.957,0.129-1.394,0.374c-0.438,0.241-0.832,0.58-1.19,1.007v10.444H66.91z"/>
		<path fill="#DDA727" d="M101.072,28.531h-1.519c-0.316,0-0.565-0.06-0.75-0.157c-0.174-0.09-0.323-0.279-0.404-0.561l-0.296-1.008
			c-0.365,0.324-0.689,0.596-1.035,0.838c-0.346,0.25-0.691,0.445-1.057,0.598c-0.367,0.184-0.747,0.311-1.151,0.382
			c-0.404,0.077-0.866,0.126-1.361,0.126c-0.578,0-1.122-0.094-1.617-0.247c-0.52-0.159-0.938-0.391-1.292-0.708
			c-0.371-0.319-0.639-0.705-0.829-1.195c-0.2-0.458-0.296-1.016-0.296-1.646c0-0.528,0.119-1.046,0.415-1.555
			c0.262-0.508,0.731-0.984,1.376-1.398c0.627-0.412,1.479-0.763,2.557-1.019c1.076-0.269,2.395-0.407,3.978-0.407v-0.818
			c0-0.94-0.188-1.653-0.577-2.085c-0.418-0.468-0.976-0.698-1.731-0.698c-0.551,0-0.985,0.084-1.359,0.188
			c-0.358,0.134-0.671,0.282-0.939,0.434c-0.259,0.172-0.51,0.299-0.749,0.424c-0.232,0.135-0.453,0.188-0.752,0.188
			c-0.217,0-0.418-0.045-0.569-0.169c-0.169-0.12-0.289-0.249-0.386-0.434l-0.619-1.069c1.596-1.463,3.545-2.193,5.798-2.193
			c0.809,0,1.529,0.124,2.168,0.404c0.645,0.248,1.19,0.641,1.646,1.104c0.42,0.477,0.762,1.042,0.998,1.711
			c0.237,0.646,0.355,1.379,0.355,2.165V28.531z M94.544,26.441c0.352,0,0.673-0.046,0.957-0.095
			c0.281-0.077,0.562-0.17,0.817-0.302c0.268-0.106,0.5-0.267,0.75-0.441c0.248-0.187,0.473-0.396,0.722-0.656v-2.342
			c-0.988,0-1.8,0.079-2.458,0.198c-0.638,0.108-1.165,0.281-1.568,0.468c-0.41,0.19-0.691,0.417-0.849,0.683
			c-0.183,0.239-0.255,0.521-0.255,0.834c0,0.583,0.164,1.014,0.522,1.256C93.542,26.306,93.975,26.441,94.544,26.441z"/>
		<path fill="#DDA727" d="M103.77,28.753V14.325h2.031c0.366,0,0.607,0.054,0.74,0.196c0.155,0.132,0.24,0.341,0.285,0.659
			l0.209,1.764c0.521-0.904,1.134-1.605,1.817-2.114c0.69-0.51,1.475-0.785,2.34-0.785c0.705,0,1.293,0.18,1.774,0.505l-0.464,2.604
			c-0.031,0.162-0.08,0.286-0.177,0.346c-0.085,0.08-0.22,0.104-0.381,0.104c-0.133,0-0.323-0.024-0.577-0.103
			c-0.255-0.048-0.571-0.093-0.979-0.093c-0.72,0-1.331,0.2-1.847,0.589c-0.509,0.418-0.952,0.996-1.298,1.773v8.982H103.77z"/>
	</g>
	<path fill="#DDA727" d="M126.445,17.476c-0.104,0.111-0.195,0.209-0.289,0.305c-0.104,0.054-0.24,0.108-0.418,0.108
		c-0.188,0-0.349-0.067-0.521-0.18c-0.16-0.104-0.358-0.226-0.589-0.339c-0.233-0.132-0.487-0.254-0.806-0.357
		c-0.307-0.113-0.695-0.164-1.174-0.164c-0.584,0-1.101,0.104-1.553,0.313c-0.462,0.211-0.812,0.523-1.104,0.941
		c-0.314,0.399-0.523,0.877-0.679,1.458c-0.151,0.549-0.217,1.2-0.217,1.918c0,0.751,0.07,1.431,0.248,2.001
		c0.143,0.578,0.379,1.084,0.676,1.474c0.299,0.387,0.682,0.686,1.105,0.893c0.433,0.199,0.909,0.302,1.452,0.302
		c0.534,0,0.967-0.059,1.283-0.191c0.345-0.121,0.623-0.274,0.846-0.436c0.233-0.152,0.431-0.313,0.613-0.418
		c0.16-0.143,0.346-0.209,0.552-0.209c0.284,0,0.493,0.105,0.615,0.314l0.976,1.236c-0.365,0.436-0.783,0.794-1.201,1.084
		c-0.449,0.292-0.912,0.539-1.365,0.709c-0.484,0.198-0.962,0.314-1.457,0.387c-0.521,0.066-1.012,0.11-1.497,0.11
		c-0.873,0-1.683-0.177-2.459-0.497c-0.746-0.313-1.419-0.791-1.999-1.404c-0.561-0.625-1.02-1.391-1.359-2.27
		c-0.313-0.919-0.491-1.936-0.491-3.085c0-1.02,0.154-1.98,0.447-2.854c0.292-0.882,0.737-1.651,1.298-2.298
		c0.583-0.628,1.289-1.142,2.144-1.492c0.846-0.383,1.827-0.559,2.928-0.559c1.046,0,1.955,0.169,2.767,0.503
		c0.767,0.349,1.471,0.816,2.097,1.447L126.445,17.476z"/>
	
		<radialGradient id="SVGID_1_" cx="65.9756" cy="27.5166" r="18.8219" gradientTransform="matrix(0.7505 0 0 0.7505 7.7993 -6.3191)" gradientUnits="userSpaceOnUse">
		<stop  offset="0" style="stop-color:#8DC63F"/>
		<stop  offset="1" style="stop-color:#52853F"/>
	</radialGradient>
	<path fill="url(#SVGID_1_)" d="M57.279,14.474c-1.133,0-2.178,0.274-3.117,0.711c0.209,0.717,0.121,1.455-0.595,2.137
		c0,0,0.201-2.145-0.877-3.576c0,0,0.753,1.796,0.401,3.449c-1.345-0.457-1.125-1.894-0.969-3.063
		c0.105-0.733-0.044-1.561-0.044-1.561c-0.088,0.641-0.216,1.285-0.363,1.741c-0.397,1.179-0.113,2.312,0.042,2.763
		c-0.999,1.236-1.599,2.803-1.599,4.52c0,3.926,3.17,7.12,7.12,7.12c3.919,0,7.121-3.194,7.121-7.12
		C64.4,17.678,61.198,14.474,57.279,14.474z M56.739,27.564c-3.101,0-5.608-2.515-5.608-5.597c0-2.713,1.899-4.957,4.455-5.496
		c1.137-2.073,4.184,0.405,4.184,0.405s-0.599-0.021-1.174,0.284c-1.023,0.523-2.421,1.299-3.069-0.104
		c1.837-0.776,3.125-0.404,3.125-0.404c-0.829-0.328-1.624-0.286-2.215-0.167c-2.52,0.561-4.41,2.786-4.41,5.481
		c0,2.931,2.261,5.344,5.165,5.58C57.032,27.564,56.879,27.564,56.739,27.564z M59.525,27.05c-2.88,0.875-5.935-0.783-6.815-3.665
		c-0.429-1.449-0.22-2.96,0.438-4.207c-0.498,1.114-0.62,2.372-0.24,3.626c0.575,1.886,2.148,3.227,3.971,3.553
		c0-0.313,0-0.619-0.073-0.911c-0.032-0.317-0.136-0.61-0.255-0.891c-0.133-0.288-0.299-0.549-0.53-0.755
		c-0.263-0.229-0.581-0.368-0.919-0.442c-0.064-0.013-0.104,0.005-0.135,0.073c-0.042,0.045-0.074,0.105-0.102,0.141
		c-0.076,0.068-0.167,0.068-0.244,0.027c-0.212-0.159-0.355-0.337-0.435-0.586c-0.069-0.271,0.023-0.521,0.288-0.659
		c0.271-0.177,0.563-0.259,0.885-0.232c0.227,0.014,0.441,0.069,0.638,0.167c0.272,0.177,0.569,0.224,0.882,0.224
		c0.285-0.018,0.528-0.021,0.807-0.021c0.4-0.026,0.656,0.362,0.643,0.675c-0.025,0.139-0.092,0.233-0.195,0.291
		c-0.012,0.019-0.029,0.019-0.047-0.018c-0.078-0.112-0.194-0.112-0.323-0.095c-0.095,0.018-0.153,0.086-0.218,0.187
		c-0.063,0.094-0.102,0.207-0.144,0.317c-0.054,0.307-0.072,0.593-0.104,0.889c0,0.186,0,0.365-0.026,0.573c0,0.001,0,0.022,0,0.041
		c-0.019,0-0.026,0-0.026,0c0-0.019-0.003-0.036,0-0.04c0.026-0.418,0.053-0.836,0.085-1.254c0.019-0.209,0.059-0.418,0.114-0.601
		c0.018-0.027,0.063-0.095,0.075-0.13c0.091-0.105,0.196-0.164,0.321-0.144c0.084,0.015,0.149,0.038,0.209,0.038
		c0.072,0,0.084,0,0.082-0.059c-0.01-0.217-0.207-0.433-0.427-0.498c-0.095-0.041-0.219-0.048-0.338-0.041
		c-0.358,0.018-0.696,0.055-1.063,0.02c-0.093-0.002-0.187-0.02-0.265-0.037c-0.101-0.012-0.204-0.037-0.298-0.095
		c-0.221-0.126-0.476-0.208-0.742-0.154c-0.272,0.028-0.429,0.233-0.523,0.446c0,0.065,0,0.127,0.011,0.201
		c0.041,0.099,0.095,0.179,0.163,0.271c0.035,0.056,0.099,0.056,0.142,0.002c0.057-0.056,0.093-0.094,0.111-0.159
		c0.023-0.014,0.063-0.029,0.1-0.014c0.358,0.068,0.68,0.218,0.941,0.432c0.204,0.166,0.36,0.355,0.514,0.564
		c0.192,0.31,0.325,0.653,0.423,1.002c0.052,0.268,0.052,0.523,0.052,0.76c0,0.182,0,0.332,0,0.494
		c0.261,0.056,0.55,0.085,0.814,0.091c0.282-0.612,0.53-1.209,0.7-1.853c0.133-0.537,0.201-1.059,0.188-1.612
		c-0.013-0.536-0.082-1.06-0.315-1.536c-0.279-0.537-0.649-0.979-1.126-1.341c-0.104-0.058-0.201-0.058-0.298,0
		c-0.088,0.08-0.168,0.114-0.267,0.169c-0.166,0.058-0.271,0.021-0.375-0.132c-0.231-0.368-0.342-0.786-0.294-1.204
		c0.081-0.505,0.397-0.825,0.917-0.881c0.526-0.061,1.049,0,1.567,0.254c0.327,0.183,0.63,0.418,0.861,0.73
		c0.352,0.42,0.788,0.732,1.281,0.951c0.417,0.195,0.852,0.349,1.287,0.508c0.649,0.213,0.796,1.049,0.544,1.517
		c-0.121,0.19-0.3,0.306-0.521,0.354c-0.035,0.004-0.077-0.014-0.077-0.072c-0.028-0.243-0.227-0.331-0.426-0.365
		c-0.163-0.063-0.332,0.007-0.451,0.102c-0.196,0.114-0.313,0.264-0.433,0.454c-0.303,0.416-0.555,0.855-0.809,1.327
		c-0.137,0.267-0.292,0.556-0.429,0.865c-0.017,0.008-0.049,0.045-0.071,0.08c-0.014-0.007-0.014-0.011-0.021-0.017
		c0.008-0.036,0.008-0.061,0.021-0.061c0.348-0.659,0.689-1.322,1.023-1.983c0.167-0.286,0.344-0.56,0.589-0.815
		c0.052-0.058,0.142-0.127,0.227-0.172c0.19-0.118,0.398-0.124,0.602-0.01c0.101,0.055,0.195,0.159,0.31,0.223
		c0.075,0.041,0.108,0.041,0.149-0.059c0.11-0.336,0-0.801-0.323-1.081c-0.167-0.133-0.33-0.223-0.508-0.282
		c-0.588-0.212-1.153-0.418-1.698-0.72c-0.157-0.06-0.288-0.137-0.431-0.221c-0.149-0.104-0.274-0.208-0.369-0.348
		c-0.271-0.384-0.637-0.665-1.084-0.802c-0.441-0.122-0.849,0.079-1.12,0.388c-0.054,0.072-0.104,0.202-0.104,0.298
		c-0.005,0.172,0,0.359,0.032,0.548c0.021,0.126,0.116,0.172,0.249,0.125c0.11-0.058,0.188-0.105,0.285-0.18
		c0.061-0.028,0.112-0.028,0.164,0.018c0.517,0.372,0.93,0.798,1.202,1.35c0.202,0.38,0.306,0.798,0.376,1.229
		c0.095,0.635,0.111,1.269-0.01,1.92c-0.087,0.425-0.24,0.823-0.418,1.205c-0.163,0.394-0.314,0.756-0.502,1.132
		c0.488-0.006,0.965-0.091,1.441-0.227c2.717-0.812,4.239-3.672,3.431-6.37c-0.396-1.244-1.193-2.251-2.209-2.887
		c1.252,0.667,2.231,1.803,2.677,3.256C64.068,23.118,62.416,26.162,59.525,27.05z M56.67,24.215
		c-0.156-0.341-0.355-0.644-0.631-0.888c0.004,0.008,0.015,0.028,0.041,0.042c0.036,0.014,0.053,0.03,0.066,0.062
		c0.233,0.194,0.418,0.426,0.541,0.725c0.184,0.32,0.263,0.669,0.295,1.053c0,0,0,0.013,0,0.03c0,0.012,0.008,0.018,0.008,0.036
		c0-0.019-0.008-0.022-0.008-0.036c0,0,0-0.017,0-0.018c0-0.013,0-0.013,0-0.013C56.913,24.861,56.816,24.521,56.67,24.215z
		 M56.564,23.571c0.209,0.223,0.54,1.305,0.522,1.649C56.99,24.66,56.833,24.11,56.564,23.571z M56.833,23.64
		c0.194,0.461,0.271,0.945,0.292,1.463C57.08,24.601,56.982,24.118,56.833,23.64z M57.066,23.738
		c0.125,0.373,0.16,0.748,0.125,1.155C57.175,24.493,57.137,24.118,57.066,23.738z M59.072,22.542
		c-0.023-0.656-0.146-1.277-0.418-1.852c0.001,0.023,0.038,0.059,0.063,0.113c0.024,0.022,0.043,0.077,0.053,0.119
		c0.262,0.48,0.373,0.982,0.394,1.529c0.015,0.655-0.091,1.293-0.3,1.92c0,0-0.004,0.032-0.021,0.056
		C58.977,23.816,59.072,23.184,59.072,22.542z M59.328,21.446c0.197,0.496-0.029,2.428-0.339,2.981
		C59.275,23.457,59.387,22.489,59.328,21.446z M59.699,21.742c0.002,0.864-0.209,1.692-0.521,2.524
		C59.412,23.431,59.626,22.595,59.699,21.742z M60.014,22.035c-0.087,0.666-0.262,1.327-0.62,1.929
		C59.634,23.327,59.883,22.7,60.014,22.035z"/>
</g>
</svg>
